# xmcd
#
# Track frame offsets:
#	150
#	20603
#	36118
#	54640
#	73542
#	95210
#	115626
#	130622
#	143121
#	156083
#	175970
#	196574
#
# Disc length: 2877 seconds
#
# Revision: 1
# Processed by: cddbd v1.4PL0 Copyright (c) Steve Scherf et al.
# Submitted via: audiograbber 1.81.02
#
DISCID=9e0b3b0c
DTITLE=Arrested Development - Classic Masters
DYEAR=2002
DGENRE=Hip-Hop
TTITLE0=Tennessee
TTITLE1=People Everyday
TTITLE2=Mr. Wendal
TTITLE3=Ease My Mind
TTITLE4=Revolution
TTITLE5=Natural
TTITLE6=Mama's Always On Stage
TTITLE7=Mister Landlord
TTITLE8=Southern Fried Funk
TTITLE9=Give A Man A Fish
TTITLE10=United Front
TTITLE11=Like Marvin Said (What's Goin' On)
EXTD=
EXTT0=
EXTT1=
EXTT2=
EXTT3=
EXTT4=
EXTT5=
EXTT6=
EXTT7=
EXTT8=
EXTT9=
EXTT10=
EXTT11=
PLAYORDER=
